<mxfile host="app.diagrams.net" agent="Mozilla/5.0 (Windows NT 10.0; Win64; x64) AppleWebKit/537.36 (KHTML, like Gecko) Chrome/132.0.0.0 Safari/537.36" version="26.0.14">
  <diagram name="PÃ¡gina-1" id="5T8evj--CnqliUHd-P24">
    <mxGraphModel dx="1707" dy="468" grid="1" gridSize="10" guides="1" tooltips="1" connect="1" arrows="1" fold="1" page="1" pageScale="1" pageWidth="827" pageHeight="1169" math="0" shadow="0">
      <root>
        <mxCell id="0" />
        <mxCell id="1" parent="0" />
        <mxCell id="fEolEQNRnQZsfAC_aXOe-2" style="edgeStyle=orthogonalEdgeStyle;rounded=0;orthogonalLoop=1;jettySize=auto;html=1;entryX=0;entryY=0.5;entryDx=0;entryDy=0;" edge="1" parent="1">
          <mxGeometry relative="1" as="geometry">
            <mxPoint x="410.0000000000002" y="120" as="sourcePoint" />
            <mxPoint x="350" y="205" as="targetPoint" />
          </mxGeometry>
        </mxCell>
        <mxCell id="fEolEQNRnQZsfAC_aXOe-11" style="edgeStyle=orthogonalEdgeStyle;rounded=0;orthogonalLoop=1;jettySize=auto;html=1;exitX=1;exitY=0;exitDx=0;exitDy=0;" edge="1" parent="1" source="fEolEQNRnQZsfAC_aXOe-7">
          <mxGeometry relative="1" as="geometry">
            <mxPoint x="140" y="400" as="targetPoint" />
          </mxGeometry>
        </mxCell>
        <mxCell id="fEolEQNRnQZsfAC_aXOe-12" style="edgeStyle=orthogonalEdgeStyle;rounded=0;orthogonalLoop=1;jettySize=auto;html=1;exitX=1;exitY=0.5;exitDx=0;exitDy=0;" edge="1" parent="1" source="fEolEQNRnQZsfAC_aXOe-7">
          <mxGeometry relative="1" as="geometry">
            <mxPoint x="140" y="440.5714285714289" as="targetPoint" />
          </mxGeometry>
        </mxCell>
        <mxCell id="fEolEQNRnQZsfAC_aXOe-7" value="clientes" style="rounded=0;whiteSpace=wrap;html=1;fillColor=#f5f5f5;gradientColor=#b3b3b3;strokeColor=#666666;" vertex="1" parent="1">
          <mxGeometry y="410" width="140" height="60" as="geometry" />
        </mxCell>
        <mxCell id="fEolEQNRnQZsfAC_aXOe-9" value="pedidos" style="rounded=0;whiteSpace=wrap;html=1;fillColor=#f5f5f5;gradientColor=#b3b3b3;strokeColor=#666666;" vertex="1" parent="1">
          <mxGeometry x="320" y="400" width="120" height="60" as="geometry" />
        </mxCell>
        <mxCell id="fEolEQNRnQZsfAC_aXOe-10" value="produtos" style="rounded=0;whiteSpace=wrap;html=1;fillColor=#f5f5f5;gradientColor=#b3b3b3;strokeColor=#666666;" vertex="1" parent="1">
          <mxGeometry x="620" y="400" width="120" height="60" as="geometry" />
        </mxCell>
        <mxCell id="fEolEQNRnQZsfAC_aXOe-13" value="" style="rhombus;whiteSpace=wrap;html=1;fillColor=#ffff88;strokeColor=#36393d;" vertex="1" parent="1">
          <mxGeometry x="180" y="400" width="80" height="80" as="geometry" />
        </mxCell>
        <mxCell id="fEolEQNRnQZsfAC_aXOe-14" value="" style="rhombus;whiteSpace=wrap;html=1;fillColor=#ffff88;strokeColor=#36393d;" vertex="1" parent="1">
          <mxGeometry x="500" y="400" width="80" height="80" as="geometry" />
        </mxCell>
        <mxCell id="fEolEQNRnQZsfAC_aXOe-18" value="id cliente" style="ellipse;whiteSpace=wrap;html=1;align=center;fillColor=#b0e3e6;strokeColor=#0e8088;" vertex="1" parent="1">
          <mxGeometry x="-30" y="280" width="100" height="40" as="geometry" />
        </mxCell>
        <mxCell id="fEolEQNRnQZsfAC_aXOe-24" style="edgeStyle=orthogonalEdgeStyle;rounded=0;orthogonalLoop=1;jettySize=auto;html=1;exitX=0.5;exitY=1;exitDx=0;exitDy=0;" edge="1" parent="1" source="fEolEQNRnQZsfAC_aXOe-19">
          <mxGeometry relative="1" as="geometry">
            <mxPoint x="10" y="570" as="targetPoint" />
          </mxGeometry>
        </mxCell>
        <mxCell id="fEolEQNRnQZsfAC_aXOe-19" value="e-mail" style="ellipse;whiteSpace=wrap;html=1;align=center;fillColor=#b0e3e6;strokeColor=#0e8088;" vertex="1" parent="1">
          <mxGeometry x="-50" y="520" width="100" height="40" as="geometry" />
        </mxCell>
        <mxCell id="fEolEQNRnQZsfAC_aXOe-21" value="" style="endArrow=none;html=1;rounded=0;" edge="1" parent="1">
          <mxGeometry relative="1" as="geometry">
            <mxPoint x="-20" y="520" as="sourcePoint" />
            <mxPoint x="-40" y="520" as="targetPoint" />
          </mxGeometry>
        </mxCell>
        <mxCell id="fEolEQNRnQZsfAC_aXOe-23" value="nome" style="ellipse;whiteSpace=wrap;html=1;align=center;fillColor=#b0e3e6;strokeColor=#0e8088;direction=west;" vertex="1" parent="1">
          <mxGeometry x="70" y="520" width="100" height="40" as="geometry" />
        </mxCell>
        <mxCell id="fEolEQNRnQZsfAC_aXOe-25" value="" style="endArrow=none;html=1;rounded=0;" edge="1" parent="1">
          <mxGeometry relative="1" as="geometry">
            <mxPoint x="100" y="520" as="sourcePoint" />
            <mxPoint x="100" y="460" as="targetPoint" />
            <Array as="points">
              <mxPoint x="100" y="470" />
            </Array>
          </mxGeometry>
        </mxCell>
        <mxCell id="fEolEQNRnQZsfAC_aXOe-26" value="Text" style="edgeLabel;html=1;align=center;verticalAlign=middle;resizable=0;points=[];" vertex="1" connectable="0" parent="fEolEQNRnQZsfAC_aXOe-25">
          <mxGeometry x="0.475" y="-2" relative="1" as="geometry">
            <mxPoint as="offset" />
          </mxGeometry>
        </mxCell>
        <mxCell id="fEolEQNRnQZsfAC_aXOe-27" value="Text" style="edgeLabel;html=1;align=center;verticalAlign=middle;resizable=0;points=[];rotation=270;" vertex="1" connectable="0" parent="fEolEQNRnQZsfAC_aXOe-25">
          <mxGeometry x="-0.2768" y="3" relative="1" as="geometry">
            <mxPoint as="offset" />
          </mxGeometry>
        </mxCell>
        <mxCell id="fEolEQNRnQZsfAC_aXOe-28" value="" style="endArrow=none;html=1;rounded=0;exitX=0.5;exitY=0;exitDx=0;exitDy=0;" edge="1" parent="1" source="fEolEQNRnQZsfAC_aXOe-19">
          <mxGeometry relative="1" as="geometry">
            <mxPoint y="500" as="sourcePoint" />
            <mxPoint y="470" as="targetPoint" />
            <Array as="points">
              <mxPoint y="470" />
            </Array>
          </mxGeometry>
        </mxCell>
        <mxCell id="fEolEQNRnQZsfAC_aXOe-29" value="Text" style="edgeLabel;html=1;align=center;verticalAlign=middle;resizable=0;points=[];" vertex="1" connectable="0" parent="fEolEQNRnQZsfAC_aXOe-28">
          <mxGeometry x="-0.3125" y="1" relative="1" as="geometry">
            <mxPoint x="-5" as="offset" />
          </mxGeometry>
        </mxCell>
        <mxCell id="fEolEQNRnQZsfAC_aXOe-30" value="" style="endArrow=none;html=1;rounded=0;exitX=0.78;exitY=0.95;exitDx=0;exitDy=0;exitPerimeter=0;entryX=0.925;entryY=0;entryDx=0;entryDy=0;entryPerimeter=0;" edge="1" parent="1" source="fEolEQNRnQZsfAC_aXOe-18" target="fEolEQNRnQZsfAC_aXOe-7">
          <mxGeometry relative="1" as="geometry">
            <mxPoint x="60" y="380" as="sourcePoint" />
            <mxPoint x="270" y="480" as="targetPoint" />
            <Array as="points">
              <mxPoint x="48" y="410" />
            </Array>
          </mxGeometry>
        </mxCell>
        <mxCell id="fEolEQNRnQZsfAC_aXOe-31" value="" style="endArrow=none;html=1;rounded=0;entryX=0;entryY=0.633;entryDx=0;entryDy=0;entryPerimeter=0;" edge="1" parent="1" target="fEolEQNRnQZsfAC_aXOe-9">
          <mxGeometry relative="1" as="geometry">
            <mxPoint x="140" y="439.5" as="sourcePoint" />
            <mxPoint x="310" y="440" as="targetPoint" />
          </mxGeometry>
        </mxCell>
        <mxCell id="fEolEQNRnQZsfAC_aXOe-32" value="" style="endArrow=none;html=1;rounded=0;entryX=-0.025;entryY=0.65;entryDx=0;entryDy=0;entryPerimeter=0;" edge="1" parent="1" target="fEolEQNRnQZsfAC_aXOe-10">
          <mxGeometry relative="1" as="geometry">
            <mxPoint x="440" y="439.5" as="sourcePoint" />
            <mxPoint x="600" y="439.5" as="targetPoint" />
          </mxGeometry>
        </mxCell>
        <mxCell id="fEolEQNRnQZsfAC_aXOe-33" value="nome" style="ellipse;whiteSpace=wrap;html=1;fillColor=#b0e3e6;strokeColor=#0e8088;" vertex="1" parent="1">
          <mxGeometry x="580" y="500" width="120" height="80" as="geometry" />
        </mxCell>
        <mxCell id="fEolEQNRnQZsfAC_aXOe-34" value="nome" style="ellipse;whiteSpace=wrap;html=1;fillColor=#b0e3e6;strokeColor=#0e8088;" vertex="1" parent="1">
          <mxGeometry x="707" y="500" width="120" height="80" as="geometry" />
        </mxCell>
        <mxCell id="fEolEQNRnQZsfAC_aXOe-35" value="id clientes" style="ellipse;whiteSpace=wrap;html=1;fillColor=#b0e3e6;strokeColor=#0e8088;" vertex="1" parent="1">
          <mxGeometry x="620" y="260" width="120" height="80" as="geometry" />
        </mxCell>
        <mxCell id="fEolEQNRnQZsfAC_aXOe-36" value="data" style="ellipse;whiteSpace=wrap;html=1;fillColor=#b0e3e6;strokeColor=#0e8088;" vertex="1" parent="1">
          <mxGeometry x="414" y="500" width="120" height="80" as="geometry" />
        </mxCell>
        <mxCell id="fEolEQNRnQZsfAC_aXOe-37" value="id produto" style="ellipse;whiteSpace=wrap;html=1;fillColor=#b0e3e6;strokeColor=#0e8088;" vertex="1" parent="1">
          <mxGeometry x="260" y="500" width="120" height="80" as="geometry" />
        </mxCell>
        <mxCell id="fEolEQNRnQZsfAC_aXOe-38" value="id clientes" style="ellipse;whiteSpace=wrap;html=1;fillColor=#b0e3e6;strokeColor=#0e8088;" vertex="1" parent="1">
          <mxGeometry x="414" y="260" width="120" height="80" as="geometry" />
        </mxCell>
        <mxCell id="fEolEQNRnQZsfAC_aXOe-39" value="id pedidos" style="ellipse;whiteSpace=wrap;html=1;fillColor=#b0e3e6;strokeColor=#0e8088;" vertex="1" parent="1">
          <mxGeometry x="260" y="260" width="120" height="80" as="geometry" />
        </mxCell>
        <mxCell id="fEolEQNRnQZsfAC_aXOe-40" value="&lt;h1 style=&quot;margin-top: 0px;&quot;&gt;Diagrama ER-Projeto Loja&lt;/h1&gt;&lt;div&gt;Desenvolvido por Gabriel Scarazatti De Aquino&lt;/div&gt;" style="text;html=1;whiteSpace=wrap;overflow=hidden;rounded=0;" vertex="1" parent="1">
          <mxGeometry x="30" y="600" width="180" height="120" as="geometry" />
        </mxCell>
        <mxCell id="fEolEQNRnQZsfAC_aXOe-41" value="" style="endArrow=none;html=1;rounded=0;exitX=0.5;exitY=0;exitDx=0;exitDy=0;" edge="1" parent="1" source="fEolEQNRnQZsfAC_aXOe-10">
          <mxGeometry width="50" height="50" relative="1" as="geometry">
            <mxPoint x="630" y="390" as="sourcePoint" />
            <mxPoint x="680" y="340" as="targetPoint" />
          </mxGeometry>
        </mxCell>
        <mxCell id="fEolEQNRnQZsfAC_aXOe-42" value="" style="endArrow=none;html=1;rounded=0;" edge="1" parent="1">
          <mxGeometry width="50" height="50" relative="1" as="geometry">
            <mxPoint x="460" y="530" as="sourcePoint" />
            <mxPoint x="510" y="480" as="targetPoint" />
          </mxGeometry>
        </mxCell>
        <mxCell id="fEolEQNRnQZsfAC_aXOe-43" value="" style="endArrow=none;html=1;rounded=0;" edge="1" parent="1">
          <mxGeometry width="50" height="50" relative="1" as="geometry">
            <mxPoint x="460" y="530" as="sourcePoint" />
            <mxPoint x="510" y="480" as="targetPoint" />
          </mxGeometry>
        </mxCell>
        <mxCell id="fEolEQNRnQZsfAC_aXOe-44" value="" style="endArrow=none;html=1;rounded=0;" edge="1" parent="1">
          <mxGeometry width="50" height="50" relative="1" as="geometry">
            <mxPoint x="460" y="530" as="sourcePoint" />
            <mxPoint x="510" y="480" as="targetPoint" />
          </mxGeometry>
        </mxCell>
        <mxCell id="fEolEQNRnQZsfAC_aXOe-45" value="" style="endArrow=none;html=1;rounded=0;" edge="1" parent="1">
          <mxGeometry width="50" height="50" relative="1" as="geometry">
            <mxPoint x="460" y="530" as="sourcePoint" />
            <mxPoint x="510" y="480" as="targetPoint" />
          </mxGeometry>
        </mxCell>
        <mxCell id="fEolEQNRnQZsfAC_aXOe-46" value="" style="endArrow=none;html=1;rounded=0;" edge="1" parent="1">
          <mxGeometry width="50" height="50" relative="1" as="geometry">
            <mxPoint x="460" y="530" as="sourcePoint" />
            <mxPoint x="510" y="480" as="targetPoint" />
          </mxGeometry>
        </mxCell>
        <mxCell id="fEolEQNRnQZsfAC_aXOe-47" value="" style="endArrow=none;html=1;rounded=0;" edge="1" parent="1">
          <mxGeometry width="50" height="50" relative="1" as="geometry">
            <mxPoint x="310" y="380" as="sourcePoint" />
            <mxPoint x="360" y="330" as="targetPoint" />
          </mxGeometry>
        </mxCell>
        <mxCell id="fEolEQNRnQZsfAC_aXOe-48" value="Text" style="edgeLabel;html=1;align=center;verticalAlign=middle;resizable=0;points=[];" vertex="1" connectable="0" parent="fEolEQNRnQZsfAC_aXOe-47">
          <mxGeometry x="0.6" y="-4" relative="1" as="geometry">
            <mxPoint as="offset" />
          </mxGeometry>
        </mxCell>
      </root>
    </mxGraphModel>
  </diagram>
</mxfile>
